<svg width="209" height="9" viewBox="0 0 209 9" fill="none" xmlns="http://www.w3.org/2000/svg">
<path d="M7.64285 5.08L7.73285 6.8C7.58619 7.04667 7.38952 7.27 7.14285 7.47C6.89619 7.67 6.58952 7.83333 6.22285 7.96C5.85619 8.08 5.42285 8.14 4.92285 8.14C4.10952 8.13333 3.39619 7.98667 2.78285 7.7C2.17619 7.40667 1.70618 6.99 1.37285 6.45C1.03952 5.91 0.872852 5.25667 0.872852 4.49C0.872852 3.74333 1.03618 3.1 1.36285 2.56C1.68952 2.01333 2.15618 1.59333 2.76285 1.3C3.37618 1.00667 4.10618 0.86 4.95285 0.86C5.48619 0.86 5.96285 0.913333 6.38285 1.02C6.80952 1.12667 7.16619 1.25667 7.45285 1.41L7.46285 3.12H7.37285C7.19285 2.46 6.89952 1.99 6.49285 1.71C6.08619 1.42333 5.60952 1.28 5.06285 1.28C4.52952 1.28 4.07285 1.41 3.69285 1.67C3.31285 1.93 3.01952 2.29667 2.81285 2.77C2.60618 3.24333 2.50285 3.81 2.50285 4.47C2.50285 5.13 2.59952 5.7 2.79285 6.18C2.99285 6.66 3.27285 7.03333 3.63285 7.3C3.99952 7.56667 4.42952 7.70667 4.92285 7.72C5.43619 7.72 5.86952 7.63667 6.22285 7.47C6.57619 7.30333 6.85952 7.02667 7.07285 6.64C7.29285 6.25333 7.45619 5.73333 7.56285 5.08H7.64285ZM12.1056 1.87C12.6389 1.87 13.1223 1.94333 13.5556 2.09C13.9889 2.23 14.3623 2.43667 14.6756 2.71C14.9889 2.98333 15.2289 3.31333 15.3956 3.7C15.5689 4.08667 15.6556 4.52333 15.6556 5.01C15.6556 5.49 15.5689 5.92333 15.3956 6.31C15.2289 6.69 14.9889 7.01667 14.6756 7.29C14.3623 7.56333 13.9889 7.77333 13.5556 7.92C13.1223 8.06 12.6389 8.13 12.1056 8.13C11.5789 8.13 11.0989 8.06 10.6656 7.92C10.2323 7.77333 9.85892 7.56333 9.54559 7.29C9.23225 7.01667 8.99225 6.69 8.82559 6.31C8.65892 5.92333 8.57559 5.49 8.57559 5.01C8.57559 4.52333 8.65892 4.08667 8.82559 3.7C8.99225 3.31333 9.23225 2.98333 9.54559 2.71C9.85892 2.43667 10.2323 2.23 10.6656 2.09C11.0989 1.94333 11.5789 1.87 12.1056 1.87ZM12.1056 7.74C12.5123 7.74 12.8656 7.63 13.1656 7.41C13.4723 7.18333 13.7056 6.86667 13.8656 6.46C14.0323 6.05333 14.1156 5.57 14.1156 5.01C14.1156 4.44333 14.0323 3.95667 13.8656 3.55C13.7056 3.13667 13.4723 2.82 13.1656 2.6C12.8656 2.37333 12.5123 2.26 12.1056 2.26C11.7056 2.26 11.3556 2.37333 11.0556 2.6C10.7556 2.82 10.5223 3.13667 10.3556 3.55C10.1889 3.95667 10.1056 4.44333 10.1056 5.01C10.1056 5.57 10.1889 6.05333 10.3556 6.46C10.5223 6.86667 10.7556 7.18333 11.0556 7.41C11.3556 7.63 11.7056 7.74 12.1056 7.74ZM18.2218 2H19.1818C19.7218 2 20.1585 2.07333 20.4918 2.22C20.8252 2.36667 21.0752 2.56667 21.2418 2.82C21.4085 3.06667 21.4985 3.34667 21.5118 3.66C21.5252 4.05333 21.4452 4.39667 21.2718 4.69C21.1052 4.98333 20.8785 5.20667 20.5918 5.36C20.3052 5.51333 19.9918 5.58333 19.6518 5.57C19.3118 5.55 18.9752 5.43 18.6418 5.21V5.12C18.6418 5.12 18.6752 5.12 18.7418 5.12C18.8152 5.12 18.9052 5.11 19.0118 5.09C19.1185 5.06333 19.2285 5.01667 19.3418 4.95C19.4618 4.88333 19.5752 4.78333 19.6818 4.65C19.7885 4.51667 19.8718 4.33667 19.9318 4.11C19.9518 4.03 19.9652 3.94333 19.9718 3.85C19.9852 3.75 19.9885 3.66333 19.9818 3.59C19.9752 3.22333 19.8652 2.93333 19.6518 2.72C19.4452 2.5 19.1552 2.39 18.7818 2.39H18.3118C18.3118 2.39 18.3052 2.36 18.2918 2.3C18.2785 2.23333 18.2618 2.16667 18.2418 2.1C18.2285 2.03333 18.2218 2 18.2218 2ZM18.3318 2V8H16.8918V2H18.3318ZM16.9118 7.37L16.9518 8H16.2318V7.9C16.2385 7.9 16.2585 7.9 16.2918 7.9C16.3252 7.9 16.3452 7.9 16.3518 7.9C16.4985 7.9 16.6218 7.85 16.7218 7.75C16.8285 7.64333 16.8852 7.51667 16.8918 7.37H16.9118ZM16.9118 2.62H16.8918C16.8852 2.46667 16.8285 2.34333 16.7218 2.25C16.6218 2.15 16.4985 2.1 16.3518 2.1C16.3385 2.1 16.3152 2.1 16.2818 2.1C16.2552 2.1 16.2352 2.1 16.2218 2.1V2H16.9518L16.9118 2.62ZM18.3118 7.37H18.3318C18.3385 7.51667 18.3918 7.64333 18.4918 7.75C18.5918 7.85 18.7185 7.9 18.8718 7.9C18.8852 7.9 18.9052 7.9 18.9318 7.9C18.9652 7.9 18.9852 7.9 18.9918 7.9V8H18.2618L18.3118 7.37ZM23.7012 2.01L25.5812 5.26L24.2512 5.41L22.0612 2.01H23.7012ZM25.6412 5.28V8H24.2012V5.3L25.6412 5.28ZM27.0612 2.01H27.8012L25.5412 5.48L25.0712 5.39L27.0612 2.01ZM26.7012 2.62C26.7745 2.49333 26.7745 2.37667 26.7012 2.27C26.6279 2.15667 26.5279 2.1 26.4012 2.1C26.4012 2.1 26.3812 2.1 26.3412 2.1C26.3012 2.1 26.2812 2.1 26.2812 2.1V2H28.4312V2.1H28.3012C28.1212 2.1 27.9512 2.15 27.7912 2.25C27.6379 2.34333 27.5145 2.45667 27.4212 2.59L26.7012 2.62ZM24.0512 2.62L22.4312 2.59C22.3379 2.45 22.2145 2.33333 22.0612 2.24C21.9079 2.14667 21.7379 2.1 21.5512 2.1H21.4312V2H24.4712V2.1C24.4712 2.1 24.4512 2.1 24.4112 2.1C24.3779 2.1 24.3612 2.1 24.3612 2.1C24.2279 2.1 24.1245 2.15667 24.0512 2.27C23.9845 2.38333 23.9845 2.5 24.0512 2.62ZM24.2312 7.37V8H23.5212V7.9C23.5279 7.9 23.5479 7.9 23.5812 7.9C23.6212 7.9 23.6412 7.9 23.6412 7.9C23.7945 7.9 23.9245 7.85 24.0312 7.75C24.1379 7.64333 24.1945 7.51667 24.2012 7.37H24.2312ZM25.6212 7.37H25.6412C25.6479 7.51667 25.7045 7.64333 25.8112 7.75C25.9245 7.85 26.0545 7.9 26.2012 7.9C26.2012 7.9 26.2212 7.9 26.2612 7.9C26.3012 7.9 26.3212 7.9 26.3212 7.9V8H25.6212V7.37ZM30.5965 2H31.6765C31.9499 2 32.2165 2.03 32.4765 2.09C32.7365 2.14333 32.9699 2.23333 33.1765 2.36C33.3832 2.48 33.5465 2.64667 33.6665 2.86C33.7932 3.06667 33.8565 3.32667 33.8565 3.64C33.8565 3.87333 33.8065 4.10667 33.7065 4.34C33.6132 4.56667 33.4632 4.76333 33.2565 4.93C33.0565 5.09667 32.7932 5.20667 32.4665 5.26C32.6599 5.32 32.8432 5.43667 33.0165 5.61C33.1965 5.78333 33.3365 5.94667 33.4365 6.1C33.4632 6.15333 33.5099 6.24 33.5765 6.36C33.6432 6.47333 33.7265 6.60667 33.8265 6.76C33.9332 6.90667 34.0432 7.06 34.1565 7.22C34.2899 7.4 34.4065 7.54 34.5065 7.64C34.6065 7.73333 34.7099 7.8 34.8165 7.84C34.9232 7.88 35.0465 7.9 35.1865 7.9V8H34.3465C33.9865 8 33.6799 7.97333 33.4265 7.92C33.1799 7.86667 32.9632 7.77 32.7765 7.63C32.5965 7.48333 32.4299 7.28667 32.2765 7.04C32.2165 6.95333 32.1532 6.85 32.0865 6.73C32.0199 6.60333 31.9532 6.47667 31.8865 6.35C31.8199 6.22333 31.7599 6.1 31.7065 5.98C31.6599 5.86 31.6265 5.76 31.6065 5.68C31.5199 5.46667 31.4199 5.31333 31.3065 5.22C31.1999 5.12 31.0999 5.07 31.0065 5.07V4.98C31.0065 4.98 31.0299 4.98 31.0765 4.98C31.1232 4.98 31.1832 4.98 31.2565 4.98C31.3965 4.98 31.5332 4.95667 31.6665 4.91C31.8065 4.85667 31.9332 4.76 32.0465 4.62C32.1599 4.47333 32.2432 4.26 32.2965 3.98C32.3099 3.94 32.3199 3.88333 32.3265 3.81C32.3399 3.73667 32.3432 3.65333 32.3365 3.56C32.3232 3.31333 32.2765 3.11667 32.1965 2.97C32.1232 2.81667 32.0299 2.70333 31.9165 2.63C31.8032 2.55 31.6865 2.49667 31.5665 2.47C31.4532 2.43667 31.3532 2.42 31.2665 2.42C31.1399 2.41333 31.0232 2.41333 30.9165 2.42C30.8165 2.42 30.7399 2.41667 30.6865 2.41C30.6799 2.41 30.6699 2.37667 30.6565 2.31C30.6432 2.23667 30.6299 2.16667 30.6165 2.1C30.6032 2.03333 30.5965 2 30.5965 2ZM30.6965 2V8H29.2465V2H30.6965ZM29.2765 7.37L29.3165 8H28.5965V7.9C28.6032 7.9 28.6199 7.9 28.6465 7.9C28.6799 7.9 28.7032 7.9 28.7165 7.9C28.8632 7.9 28.9865 7.85 29.0865 7.75C29.1932 7.64333 29.2499 7.51667 29.2565 7.37H29.2765ZM29.2765 2.62H29.2565C29.2499 2.46667 29.1932 2.34333 29.0865 2.25C28.9865 2.15 28.8665 2.1 28.7265 2.1C28.7065 2.1 28.6799 2.1 28.6465 2.1C28.6199 2.1 28.6032 2.1 28.5965 2.1V2H29.3165L29.2765 2.62ZM30.6765 7.37H30.6965C30.6965 7.53667 30.7532 7.66667 30.8665 7.76C30.9865 7.85333 31.1132 7.9 31.2465 7.9C31.2465 7.9 31.2599 7.9 31.2865 7.9C31.3132 7.9 31.3332 7.9 31.3465 7.9V8H30.6265L30.6765 7.37ZM37.2486 2V8H35.8086V2H37.2486ZM35.8386 7.37V8H35.1086V7.9C35.1086 7.9 35.1286 7.9 35.1686 7.9C35.2086 7.9 35.2319 7.9 35.2386 7.9C35.3919 7.9 35.5252 7.85 35.6386 7.75C35.7519 7.64333 35.8086 7.51667 35.8086 7.37H35.8386ZM37.2286 7.37H37.2486C37.2552 7.51667 37.3119 7.64333 37.4186 7.75C37.5319 7.85 37.6686 7.9 37.8286 7.9C37.8286 7.9 37.8452 7.9 37.8786 7.9C37.9186 7.9 37.9419 7.9 37.9486 7.9V8H37.2286V7.37ZM37.2286 2.63V2H37.9486L37.9386 2.1C37.9386 2.1 37.9219 2.1 37.8886 2.1C37.8552 2.1 37.8352 2.1 37.8286 2.1C37.6686 2.1 37.5319 2.15 37.4186 2.25C37.3119 2.35 37.2552 2.47667 37.2486 2.63H37.2286ZM35.8386 2.63H35.8086C35.8086 2.47667 35.7519 2.35 35.6386 2.25C35.5252 2.15 35.3886 2.1 35.2286 2.1C35.2286 2.1 35.2086 2.1 35.1686 2.1C35.1286 2.1 35.1086 2.1 35.1086 2.1V2H35.8386V2.63ZM41.8963 1.87C42.203 1.87 42.5096 1.89 42.8163 1.93C43.1296 1.96333 43.4196 2.01667 43.6863 2.09C43.9596 2.15667 44.1896 2.23667 44.3763 2.33V3.92H44.2963C44.1896 3.49333 44.0296 3.16 43.8163 2.92C43.6096 2.68 43.3696 2.51 43.0963 2.41C42.823 2.31 42.5263 2.26 42.2063 2.26C41.7396 2.26 41.3463 2.37 41.0263 2.59C40.7063 2.81 40.463 3.13 40.2963 3.55C40.1363 3.96333 40.0563 4.46333 40.0563 5.05C40.0563 5.60333 40.1296 6.08 40.2763 6.48C40.423 6.88 40.6396 7.19 40.9263 7.41C41.213 7.63 41.5596 7.74 41.9663 7.74C42.1796 7.74 42.383 7.70667 42.5763 7.64C42.7696 7.56667 42.9396 7.46333 43.0863 7.33C43.233 7.19 43.3363 7.02 43.3963 6.82L43.4063 5.62C43.4063 5.48667 43.3663 5.38667 43.2863 5.32C43.213 5.25333 43.1063 5.22 42.9663 5.22H42.8263V5.13H45.3963V5.22H45.2663C44.973 5.22 44.8296 5.35333 44.8363 5.62V6.95C44.6963 7.13667 44.4796 7.32 44.1863 7.5C43.893 7.68 43.5463 7.83 43.1463 7.95C42.7463 8.07 42.3096 8.13 41.8363 8.13C41.1696 8.12333 40.5896 7.99667 40.0963 7.75C39.603 7.49667 39.2196 7.13667 38.9463 6.67C38.673 6.20333 38.5363 5.64333 38.5363 4.99C38.5363 4.33667 38.673 3.78 38.9463 3.32C39.2196 2.85333 39.6063 2.49667 40.1063 2.25C40.6063 1.99667 41.203 1.87 41.8963 1.87ZM51.8352 2V8H50.4052V2H51.8352ZM47.7652 2V8H46.3252V2H47.7652ZM50.4852 4.81V5.21H47.6752V4.81H50.4852ZM46.3552 7.37V8H45.6652V7.9C45.6652 7.9 45.6819 7.9 45.7152 7.9C45.7552 7.9 45.7785 7.9 45.7852 7.9C45.9319 7.9 46.0585 7.85 46.1652 7.75C46.2719 7.64333 46.3252 7.51667 46.3252 7.37H46.3552ZM47.7452 7.37H47.7652C47.7719 7.51667 47.8285 7.64333 47.9352 7.75C48.0419 7.85 48.1685 7.9 48.3152 7.9C48.3152 7.9 48.3319 7.9 48.3652 7.9C48.4052 7.9 48.4252 7.9 48.4252 7.9V8H47.7452V7.37ZM47.7452 2.63V2H48.4252V2.1C48.4252 2.1 48.4052 2.1 48.3652 2.1C48.3319 2.1 48.3152 2.1 48.3152 2.1C48.1685 2.1 48.0419 2.15 47.9352 2.25C47.8285 2.35 47.7719 2.47667 47.7652 2.63H47.7452ZM46.3552 2.63H46.3252C46.3252 2.47667 46.2719 2.35 46.1652 2.25C46.0585 2.15 45.9319 2.1 45.7852 2.1C45.7785 2.1 45.7552 2.1 45.7152 2.1C45.6819 2.1 45.6652 2.1 45.6652 2.1V2H46.3552V2.63ZM50.4252 7.37V8H49.7452V7.9C49.7452 7.9 49.7619 7.9 49.7952 7.9C49.8352 7.9 49.8552 7.9 49.8552 7.9C50.0019 7.9 50.1285 7.85 50.2352 7.75C50.3419 7.64333 50.3952 7.51667 50.3952 7.37H50.4252ZM51.8052 7.37H51.8352C51.8419 7.51667 51.8952 7.64333 51.9952 7.75C52.1019 7.85 52.2319 7.9 52.3852 7.9C52.3852 7.9 52.4019 7.9 52.4352 7.9C52.4752 7.9 52.4952 7.9 52.4952 7.9V8H51.8052V7.37ZM51.8152 2.63V2H52.5052V2.1C52.5052 2.1 52.4852 2.1 52.4452 2.1C52.4052 2.1 52.3852 2.1 52.3852 2.1C52.2319 2.1 52.1019 2.15 51.9952 2.25C51.8952 2.35 51.8452 2.47667 51.8452 2.63H51.8152ZM50.4252 2.63H50.3952C50.3952 2.47667 50.3419 2.35 50.2352 2.25C50.1285 2.15 50.0019 2.1 49.8552 2.1C49.8552 2.1 49.8352 2.1 49.7952 2.1C49.7619 2.1 49.7452 2.1 49.7452 2.1V2H50.4252V2.63ZM56.555 2.03V8H55.105V2.03H56.555ZM58.735 1.99V2.39H52.935V1.99H58.735ZM58.735 2.36V3.42H58.625V3.33C58.6316 3.04333 58.5516 2.81667 58.385 2.65C58.225 2.48333 58.0016 2.39667 57.715 2.39V2.36H58.735ZM58.735 1.84V2.09L57.675 1.99C57.8016 1.99 57.9383 1.98333 58.085 1.97C58.2316 1.95 58.365 1.93 58.485 1.91C58.605 1.88333 58.6883 1.86 58.735 1.84ZM55.125 7.37V8H54.455V7.9C54.455 7.9 54.4716 7.9 54.505 7.9C54.545 7.9 54.565 7.9 54.565 7.9C54.7116 7.9 54.835 7.85 54.935 7.75C55.0416 7.64333 55.0983 7.51667 55.105 7.37H55.125ZM56.525 7.37H56.555C56.555 7.51667 56.6083 7.64333 56.715 7.75C56.8216 7.85 56.9516 7.9 57.105 7.9C57.105 7.9 57.1216 7.9 57.155 7.9C57.195 7.9 57.215 7.9 57.215 7.9V8H56.525V7.37ZM53.955 2.36V2.39C53.6616 2.39667 53.435 2.48333 53.275 2.65C53.1216 2.81667 53.045 3.04333 53.045 3.33V3.42H52.935V2.36H53.955ZM52.935 1.84C52.995 1.85333 53.0816 1.87333 53.195 1.9C53.315 1.92667 53.445 1.95 53.585 1.97C53.7316 1.98333 53.865 1.99 53.985 1.99L52.935 2.09V1.84ZM65.5613 0.86C66.0613 0.86 66.5313 0.956666 66.9713 1.15C67.4113 1.33667 67.798 1.59667 68.1313 1.93C68.4646 2.26333 68.7246 2.65 68.9113 3.09C69.1046 3.53 69.2013 4 69.2013 4.5C69.2013 5 69.1046 5.47 68.9113 5.91C68.7246 6.35 68.4646 6.73667 68.1313 7.07C67.798 7.40333 67.4113 7.66667 66.9713 7.86C66.5313 8.04667 66.0613 8.14 65.5613 8.14C65.0613 8.14 64.5913 8.04667 64.1513 7.86C63.7113 7.66667 63.3246 7.40333 62.9913 7.07C62.658 6.73667 62.3946 6.35 62.2013 5.91C62.0146 5.47 61.9213 5 61.9213 4.5C61.9213 4 62.0146 3.53 62.2013 3.09C62.3946 2.65 62.658 2.26333 62.9913 1.93C63.3246 1.59667 63.7113 1.33667 64.1513 1.15C64.5913 0.956666 65.0613 0.86 65.5613 0.86ZM65.5613 1.32C65.1213 1.32 64.708 1.40333 64.3213 1.57C63.9413 1.73667 63.6046 1.96667 63.3113 2.26C63.0246 2.54667 62.798 2.88333 62.6313 3.27C62.4646 3.65 62.3813 4.06 62.3813 4.5C62.3813 4.94 62.4646 5.35333 62.6313 5.74C62.798 6.12 63.0246 6.45667 63.3113 6.75C63.6046 7.03667 63.9413 7.26333 64.3213 7.43C64.708 7.59667 65.1213 7.68 65.5613 7.68C66.0013 7.68 66.4113 7.59667 66.7913 7.43C67.178 7.26333 67.5146 7.03667 67.8013 6.75C68.0946 6.45667 68.3246 6.12 68.4913 5.74C68.658 5.35333 68.7413 4.94 68.7413 4.5C68.7413 4.06 68.658 3.65 68.4913 3.27C68.3246 2.88333 68.0946 2.54667 67.8013 2.26C67.5146 1.96667 67.178 1.73667 66.7913 1.57C66.4113 1.40333 66.0013 1.32 65.5613 1.32ZM67.5013 4.78L67.6213 5.82C67.408 6.1 67.1313 6.32333 66.7913 6.49C66.458 6.65 66.0746 6.73 65.6413 6.73C65.1813 6.72333 64.768 6.62333 64.4013 6.43C64.0413 6.23667 63.7546 5.97333 63.5413 5.64C63.3346 5.3 63.2313 4.92 63.2313 4.5C63.2313 4.07333 63.3346 3.69333 63.5413 3.36C63.7546 3.02 64.0446 2.75333 64.4113 2.56C64.778 2.36667 65.1946 2.27 65.6613 2.27C65.948 2.27 66.248 2.30667 66.5613 2.38C66.8746 2.45333 67.148 2.56 67.3813 2.7L67.3913 3.82H67.3313C67.198 3.44667 66.9946 3.15333 66.7213 2.94C66.448 2.72667 66.1046 2.62 65.6913 2.62C65.418 2.62 65.178 2.7 64.9713 2.86C64.7646 3.01333 64.6046 3.23 64.4913 3.51C64.378 3.79 64.3213 4.12 64.3213 4.5C64.3213 4.87333 64.378 5.2 64.4913 5.48C64.6046 5.76 64.7646 5.98 64.9713 6.14C65.1846 6.29333 65.4313 6.37 65.7113 6.37C66.1846 6.37 66.5746 6.24 66.8813 5.98C67.1946 5.72 67.3813 5.32 67.4413 4.78H67.5013ZM73.2479 3.13L72.7679 1.59C72.9412 1.43667 73.1512 1.30667 73.3979 1.2C73.6512 1.09333 73.9212 1.01 74.2079 0.95C74.5012 0.89 74.7879 0.86 75.0679 0.86C75.5679 0.86 76.0145 0.943333 76.4079 1.11C76.8012 1.27 77.1079 1.5 77.3279 1.8C77.5479 2.09333 77.6579 2.45333 77.6579 2.88C77.6579 3.20667 77.5879 3.52667 77.4479 3.84C77.3079 4.14667 77.1212 4.44 76.8879 4.72C76.6612 4.99333 76.4145 5.25333 76.1479 5.5C75.8812 5.74667 75.6179 5.97 75.3579 6.17C75.1045 6.37 74.8779 6.55 74.6779 6.71H76.7279C76.9279 6.71 77.1012 6.67667 77.2479 6.61C77.4012 6.54333 77.5379 6.44 77.6579 6.3C77.7845 6.15333 77.9045 5.96667 78.0179 5.74H78.1179L77.5279 8H72.7479V7.9C73.0145 7.6 73.2979 7.28333 73.5979 6.95C73.8979 6.61 74.1912 6.26333 74.4779 5.91C74.7712 5.55667 75.0379 5.2 75.2779 4.84C75.5179 4.48 75.7079 4.12667 75.8479 3.78C75.9879 3.42667 76.0579 3.09 76.0579 2.77C76.0579 2.29667 75.9379 1.92333 75.6979 1.65C75.4579 1.37667 75.1312 1.25333 74.7179 1.28C74.2779 1.30667 73.9379 1.47667 73.6979 1.79C73.4645 2.09667 73.3479 2.54333 73.3479 3.13H73.2479ZM81.7983 0.86C82.385 0.86 82.885 1.01 83.2983 1.31C83.7183 1.61 84.0383 2.03333 84.2583 2.58C84.485 3.12 84.5983 3.76 84.5983 4.5C84.5983 5.24 84.485 5.88333 84.2583 6.43C84.0383 6.97 83.7183 7.39 83.2983 7.69C82.885 7.99 82.385 8.14 81.7983 8.14C81.2117 8.14 80.7083 7.99 80.2883 7.69C79.8683 7.39 79.545 6.97 79.3183 6.43C79.0983 5.88333 78.9883 5.24 78.9883 4.5C78.9883 3.76 79.0983 3.12 79.3183 2.58C79.545 2.03333 79.8683 1.61 80.2883 1.31C80.7083 1.01 81.2117 0.86 81.7983 0.86ZM81.7983 1.28C81.385 1.28 81.0717 1.55333 80.8583 2.1C80.645 2.64 80.5383 3.44 80.5383 4.5C80.5383 5.56 80.645 6.36333 80.8583 6.91C81.0717 7.45 81.385 7.72 81.7983 7.72C82.205 7.72 82.515 7.45 82.7283 6.91C82.9417 6.36333 83.0483 5.56 83.0483 4.5C83.0483 3.44 82.9417 2.64 82.7283 2.1C82.515 1.55333 82.205 1.28 81.7983 1.28ZM85.7576 3.13L85.2776 1.59C85.451 1.43667 85.661 1.30667 85.9076 1.2C86.161 1.09333 86.431 1.01 86.7176 0.95C87.011 0.89 87.2976 0.86 87.5776 0.86C88.0776 0.86 88.5243 0.943333 88.9176 1.11C89.311 1.27 89.6176 1.5 89.8376 1.8C90.0576 2.09333 90.1676 2.45333 90.1676 2.88C90.1676 3.20667 90.0976 3.52667 89.9576 3.84C89.8176 4.14667 89.631 4.44 89.3976 4.72C89.171 4.99333 88.9243 5.25333 88.6576 5.5C88.391 5.74667 88.1276 5.97 87.8676 6.17C87.6143 6.37 87.3876 6.55 87.1876 6.71H89.2376C89.4376 6.71 89.611 6.67667 89.7576 6.61C89.911 6.54333 90.0476 6.44 90.1676 6.3C90.2943 6.15333 90.4143 5.96667 90.5276 5.74H90.6276L90.0376 8H85.2576V7.9C85.5243 7.6 85.8076 7.28333 86.1076 6.95C86.4076 6.61 86.701 6.26333 86.9876 5.91C87.281 5.55667 87.5476 5.2 87.7876 4.84C88.0276 4.48 88.2176 4.12667 88.3576 3.78C88.4976 3.42667 88.5676 3.09 88.5676 2.77C88.5676 2.29667 88.4476 1.92333 88.2076 1.65C87.9676 1.37667 87.641 1.25333 87.2276 1.28C86.7876 1.30667 86.4476 1.47667 86.2076 1.79C85.9743 2.09667 85.8576 2.54333 85.8576 3.13H85.7576ZM95.4095 2.32L92.6195 2.53L92.3295 3.65C92.8828 3.51667 93.3828 3.47667 93.8295 3.53C94.2828 3.57667 94.6695 3.7 94.9895 3.9C95.3095 4.1 95.5495 4.36333 95.7095 4.69C95.8762 5.01667 95.9495 5.39333 95.9295 5.82C95.9095 6.31333 95.7795 6.73667 95.5395 7.09C95.3062 7.44333 95.0062 7.73 94.6395 7.95C94.2795 8.17 93.8895 8.32667 93.4695 8.42C93.0562 8.52 92.6528 8.55667 92.2595 8.53C91.8728 8.51 91.5328 8.43667 91.2395 8.31L91.2595 8.21C91.4262 8.21667 91.6328 8.19333 91.8795 8.14C92.1328 8.09333 92.3928 8.01333 92.6595 7.9C92.9328 7.78667 93.1895 7.64333 93.4295 7.47C93.6695 7.29 93.8695 7.07667 94.0295 6.83C94.1895 6.57667 94.2795 6.29 94.2995 5.97C94.3328 5.55667 94.2295 5.23 93.9895 4.99C93.7495 4.75 93.4195 4.61 92.9995 4.57C92.5862 4.53 92.1195 4.61 91.5995 4.81L91.5095 4.76L92.3195 1.36L94.9095 1.15C95.1228 1.15 95.2895 1.10333 95.4095 1.01C95.5295 0.916666 95.6262 0.796666 95.6995 0.65H95.7995L95.4095 2.32ZM101.607 1H102.807C103.38 1 103.843 1.08333 104.197 1.25C104.557 1.41667 104.823 1.64667 104.997 1.94C105.177 2.22667 105.273 2.55333 105.287 2.92C105.3 3.26 105.243 3.57 105.117 3.85C104.99 4.13 104.817 4.36333 104.597 4.55C104.377 4.73667 104.123 4.87333 103.837 4.96C103.557 5.04 103.263 5.06 102.957 5.02C102.657 4.97333 102.363 4.85667 102.077 4.67V4.57C102.077 4.57 102.117 4.57 102.197 4.57C102.283 4.57 102.39 4.55667 102.517 4.53C102.65 4.50333 102.787 4.45333 102.927 4.38C103.073 4.30667 103.21 4.19333 103.337 4.04C103.463 3.88667 103.56 3.68333 103.627 3.43C103.653 3.34333 103.67 3.24667 103.677 3.14C103.69 3.02667 103.693 2.92333 103.687 2.83C103.68 2.40333 103.563 2.06333 103.337 1.81C103.117 1.55 102.803 1.42 102.397 1.42H101.707C101.707 1.42 101.697 1.38667 101.677 1.32C101.663 1.24667 101.647 1.17667 101.627 1.11C101.613 1.03667 101.607 1 101.607 1ZM101.737 1V8H100.237V1H101.737ZM100.267 7.27V8H99.4666V7.9C99.4733 7.9 99.4933 7.9 99.5266 7.9C99.5666 7.9 99.5899 7.9 99.5966 7.9C99.7699 7.9 99.9166 7.84 100.037 7.72C100.163 7.59333 100.23 7.44333 100.237 7.27H100.267ZM100.267 1.73H100.237C100.237 1.55667 100.173 1.41 100.047 1.29C99.9199 1.16333 99.7699 1.1 99.5966 1.1C99.5899 1.1 99.5699 1.1 99.5366 1.1C99.5033 1.1 99.4833 1.1 99.4766 1.1L99.4666 1H100.267V1.73ZM101.707 7.27H101.737C101.743 7.44333 101.807 7.59333 101.927 7.72C102.053 7.84 102.203 7.9 102.377 7.9C102.383 7.9 102.403 7.9 102.437 7.9C102.477 7.9 102.5 7.9 102.507 7.9V8H101.707V7.27ZM107.929 1.73L110.889 7.95H109.199L107.339 3.56L107.929 1.73ZM106.049 7.34C105.976 7.52 105.986 7.66 106.079 7.76C106.173 7.85333 106.276 7.9 106.389 7.9H106.469V8H104.469V7.9C104.469 7.9 104.483 7.9 104.509 7.9C104.536 7.9 104.549 7.9 104.549 7.9C104.683 7.9 104.823 7.86 104.969 7.78C105.116 7.69333 105.236 7.54667 105.329 7.34H106.049ZM107.929 1.73L107.949 2.93L105.779 7.97H105.039L107.379 2.94C107.393 2.9 107.423 2.83 107.469 2.73C107.516 2.62333 107.566 2.50667 107.619 2.38C107.673 2.24667 107.723 2.12333 107.769 2.01C107.816 1.89 107.843 1.79667 107.849 1.73H107.929ZM108.799 6.04V6.43H106.249V6.04H108.799ZM108.949 7.34H110.599C110.699 7.54667 110.823 7.69333 110.969 7.78C111.116 7.86 111.256 7.9 111.389 7.9C111.389 7.9 111.403 7.9 111.429 7.9C111.456 7.9 111.469 7.9 111.469 7.9V8H108.529V7.9H108.609C108.723 7.9 108.826 7.85333 108.919 7.76C109.013 7.66 109.023 7.52 108.949 7.34ZM113.585 2H114.665C114.938 2 115.205 2.03 115.465 2.09C115.725 2.14333 115.958 2.23333 116.165 2.36C116.371 2.48 116.535 2.64667 116.655 2.86C116.781 3.06667 116.845 3.32667 116.845 3.64C116.845 3.87333 116.795 4.10667 116.695 4.34C116.601 4.56667 116.451 4.76333 116.245 4.93C116.045 5.09667 115.781 5.20667 115.455 5.26C115.648 5.32 115.831 5.43667 116.005 5.61C116.185 5.78333 116.325 5.94667 116.425 6.1C116.451 6.15333 116.498 6.24 116.565 6.36C116.631 6.47333 116.715 6.60667 116.815 6.76C116.921 6.90667 117.031 7.06 117.145 7.22C117.278 7.4 117.395 7.54 117.495 7.64C117.595 7.73333 117.698 7.8 117.805 7.84C117.911 7.88 118.035 7.9 118.175 7.9V8H117.335C116.975 8 116.668 7.97333 116.415 7.92C116.168 7.86667 115.951 7.77 115.765 7.63C115.585 7.48333 115.418 7.28667 115.265 7.04C115.205 6.95333 115.141 6.85 115.075 6.73C115.008 6.60333 114.941 6.47667 114.875 6.35C114.808 6.22333 114.748 6.1 114.695 5.98C114.648 5.86 114.615 5.76 114.595 5.68C114.508 5.46667 114.408 5.31333 114.295 5.22C114.188 5.12 114.088 5.07 113.995 5.07V4.98C113.995 4.98 114.018 4.98 114.065 4.98C114.111 4.98 114.171 4.98 114.245 4.98C114.385 4.98 114.521 4.95667 114.655 4.91C114.795 4.85667 114.921 4.76 115.035 4.62C115.148 4.47333 115.231 4.26 115.285 3.98C115.298 3.94 115.308 3.88333 115.315 3.81C115.328 3.73667 115.331 3.65333 115.325 3.56C115.311 3.31333 115.265 3.11667 115.185 2.97C115.111 2.81667 115.018 2.70333 114.905 2.63C114.791 2.55 114.675 2.49667 114.555 2.47C114.441 2.43667 114.341 2.42 114.255 2.42C114.128 2.41333 114.011 2.41333 113.905 2.42C113.805 2.42 113.728 2.41667 113.675 2.41C113.668 2.41 113.658 2.37667 113.645 2.31C113.631 2.23667 113.618 2.16667 113.605 2.1C113.591 2.03333 113.585 2 113.585 2ZM113.685 2V8H112.235V2H113.685ZM112.265 7.37L112.305 8H111.585V7.9C111.591 7.9 111.608 7.9 111.635 7.9C111.668 7.9 111.691 7.9 111.705 7.9C111.851 7.9 111.975 7.85 112.075 7.75C112.181 7.64333 112.238 7.51667 112.245 7.37H112.265ZM112.265 2.62H112.245C112.238 2.46667 112.181 2.34333 112.075 2.25C111.975 2.15 111.855 2.1 111.715 2.1C111.695 2.1 111.668 2.1 111.635 2.1C111.608 2.1 111.591 2.1 111.585 2.1V2H112.305L112.265 2.62ZM113.665 7.37H113.685C113.685 7.53667 113.741 7.66667 113.855 7.76C113.975 7.85333 114.101 7.9 114.235 7.9C114.235 7.9 114.248 7.9 114.275 7.9C114.301 7.9 114.321 7.9 114.335 7.9V8H113.615L113.665 7.37ZM121.132 1.73L124.092 7.95H122.402L120.542 3.56L121.132 1.73ZM119.252 7.34C119.179 7.52 119.189 7.66 119.282 7.76C119.376 7.85333 119.479 7.9 119.592 7.9H119.672V8H117.672V7.9C117.672 7.9 117.686 7.9 117.712 7.9C117.739 7.9 117.752 7.9 117.752 7.9C117.886 7.9 118.026 7.86 118.172 7.78C118.319 7.69333 118.439 7.54667 118.532 7.34H119.252ZM121.132 1.73L121.152 2.93L118.982 7.97H118.242L120.582 2.94C120.596 2.9 120.626 2.83 120.672 2.73C120.719 2.62333 120.769 2.50667 120.822 2.38C120.876 2.24667 120.926 2.12333 120.972 2.01C121.019 1.89 121.046 1.79667 121.052 1.73H121.132ZM122.002 6.04V6.43H119.452V6.04H122.002ZM122.152 7.34H123.802C123.902 7.54667 124.026 7.69333 124.172 7.78C124.319 7.86 124.459 7.9 124.592 7.9C124.592 7.9 124.606 7.9 124.632 7.9C124.659 7.9 124.672 7.9 124.672 7.9V8H121.732V7.9H121.812C121.926 7.9 122.029 7.85333 122.122 7.76C122.216 7.66 122.226 7.52 122.152 7.34ZM126.828 2V8H125.388V2H126.828ZM129.158 7.6L129.398 8H126.808V7.6H129.158ZM129.818 6.16L129.428 8H127.698L128.008 7.6C128.295 7.6 128.548 7.54333 128.768 7.43C128.995 7.31 129.188 7.14333 129.348 6.93C129.508 6.71 129.631 6.45333 129.718 6.16H129.818ZM125.408 7.37L125.458 8H124.718V7.9C124.718 7.9 124.738 7.9 124.778 7.9C124.818 7.9 124.841 7.9 124.848 7.9C124.995 7.9 125.118 7.85 125.218 7.75C125.325 7.64333 125.381 7.51667 125.388 7.37H125.408ZM126.808 2.63V2H127.498V2.1C127.491 2.1 127.468 2.1 127.428 2.1C127.395 2.1 127.378 2.1 127.378 2.1C127.231 2.1 127.105 2.15 126.998 2.25C126.891 2.35 126.835 2.47667 126.828 2.63H126.808ZM125.408 2.63H125.388C125.381 2.47667 125.325 2.35 125.218 2.25C125.111 2.15 124.985 2.1 124.838 2.1C124.831 2.1 124.808 2.1 124.768 2.1C124.735 2.1 124.718 2.1 124.718 2.1V2H125.408V2.63ZM132.219 2V8H130.779V2H132.219ZM134.549 7.6L134.789 8H132.199V7.6H134.549ZM135.209 6.16L134.819 8H133.089L133.399 7.6C133.685 7.6 133.939 7.54333 134.159 7.43C134.385 7.31 134.579 7.14333 134.739 6.93C134.899 6.71 135.022 6.45333 135.109 6.16H135.209ZM130.799 7.37L130.849 8H130.109V7.9C130.109 7.9 130.129 7.9 130.169 7.9C130.209 7.9 130.232 7.9 130.239 7.9C130.385 7.9 130.509 7.85 130.609 7.75C130.715 7.64333 130.772 7.51667 130.779 7.37H130.799ZM132.199 2.63V2H132.889V2.1C132.882 2.1 132.859 2.1 132.819 2.1C132.785 2.1 132.769 2.1 132.769 2.1C132.622 2.1 132.495 2.15 132.389 2.25C132.282 2.35 132.225 2.47667 132.219 2.63H132.199ZM130.799 2.63H130.779C130.772 2.47667 130.715 2.35 130.609 2.25C130.502 2.15 130.375 2.1 130.229 2.1C130.222 2.1 130.199 2.1 130.159 2.1C130.125 2.1 130.109 2.1 130.109 2.1V2H130.799V2.63ZM137.609 2V8H136.169V2H137.609ZM139.949 7.6L140.179 8H137.589V7.6H139.949ZM139.609 4.83V5.23H137.589V4.83H139.609ZM140.059 2V2.4H137.589V2H140.059ZM140.589 6.16L140.209 8H138.479L138.789 7.6C139.076 7.6 139.329 7.54333 139.549 7.43C139.776 7.31 139.969 7.14333 140.129 6.93C140.289 6.71 140.413 6.45333 140.499 6.16H140.589ZM139.609 5.21V6.09H139.509V6.01C139.509 5.79 139.439 5.60667 139.299 5.46C139.166 5.31333 138.983 5.23667 138.749 5.23V5.21H139.609ZM139.609 3.97V4.85H138.749V4.83C138.983 4.82333 139.166 4.74667 139.299 4.6C139.439 4.44667 139.509 4.26 139.509 4.04V3.97H139.609ZM140.059 2.38V3.44H139.959V3.35C139.959 3.05667 139.879 2.82667 139.719 2.66C139.566 2.49333 139.343 2.40667 139.049 2.4V2.38H140.059ZM140.059 1.85V2.09L139.009 2C139.203 2 139.406 1.98333 139.619 1.95C139.833 1.91 139.979 1.87667 140.059 1.85ZM136.189 7.37L136.239 8H135.499V7.9C135.499 7.9 135.519 7.9 135.559 7.9C135.599 7.9 135.623 7.9 135.629 7.9C135.776 7.9 135.899 7.85 135.999 7.75C136.106 7.64333 136.163 7.51667 136.169 7.37H136.189ZM136.189 2.63H136.169C136.163 2.47667 136.106 2.35 135.999 2.25C135.899 2.15 135.776 2.1 135.629 2.1C135.623 2.1 135.599 2.1 135.559 2.1C135.519 2.1 135.499 2.1 135.499 2.1V2H136.239L136.189 2.63ZM143.215 2V8H141.775V2H143.215ZM145.545 7.6L145.785 8H143.195V7.6H145.545ZM146.205 6.16L145.815 8H144.085L144.395 7.6C144.681 7.6 144.935 7.54333 145.155 7.43C145.381 7.31 145.575 7.14333 145.735 6.93C145.895 6.71 146.018 6.45333 146.105 6.16H146.205ZM141.795 7.37L141.845 8H141.105V7.9C141.105 7.9 141.125 7.9 141.165 7.9C141.205 7.9 141.228 7.9 141.235 7.9C141.381 7.9 141.505 7.85 141.605 7.75C141.711 7.64333 141.768 7.51667 141.775 7.37H141.795ZM143.195 2.63V2H143.885V2.1C143.878 2.1 143.855 2.1 143.815 2.1C143.781 2.1 143.765 2.1 143.765 2.1C143.618 2.1 143.491 2.15 143.385 2.25C143.278 2.35 143.221 2.47667 143.215 2.63H143.195ZM141.795 2.63H141.775C141.768 2.47667 141.711 2.35 141.605 2.25C141.498 2.15 141.371 2.1 141.225 2.1C141.218 2.1 141.195 2.1 141.155 2.1C141.121 2.1 141.105 2.1 141.105 2.1V2H141.795V2.63ZM155.263 2V8H153.833V2H155.263ZM151.193 2V8H149.753V2H151.193ZM153.913 4.81V5.21H151.103V4.81H153.913ZM149.783 7.37V8H149.093V7.9C149.093 7.9 149.11 7.9 149.143 7.9C149.183 7.9 149.206 7.9 149.213 7.9C149.36 7.9 149.486 7.85 149.593 7.75C149.7 7.64333 149.753 7.51667 149.753 7.37H149.783ZM151.173 7.37H151.193C151.2 7.51667 151.256 7.64333 151.363 7.75C151.47 7.85 151.596 7.9 151.743 7.9C151.743 7.9 151.76 7.9 151.793 7.9C151.833 7.9 151.853 7.9 151.853 7.9V8H151.173V7.37ZM151.173 2.63V2H151.853V2.1C151.853 2.1 151.833 2.1 151.793 2.1C151.76 2.1 151.743 2.1 151.743 2.1C151.596 2.1 151.47 2.15 151.363 2.25C151.256 2.35 151.2 2.47667 151.193 2.63H151.173ZM149.783 2.63H149.753C149.753 2.47667 149.7 2.35 149.593 2.25C149.486 2.15 149.36 2.1 149.213 2.1C149.206 2.1 149.183 2.1 149.143 2.1C149.11 2.1 149.093 2.1 149.093 2.1V2H149.783V2.63ZM153.853 7.37V8H153.173V7.9C153.173 7.9 153.19 7.9 153.223 7.9C153.263 7.9 153.283 7.9 153.283 7.9C153.43 7.9 153.556 7.85 153.663 7.75C153.77 7.64333 153.823 7.51667 153.823 7.37H153.853ZM155.233 7.37H155.263C155.27 7.51667 155.323 7.64333 155.423 7.75C155.53 7.85 155.66 7.9 155.813 7.9C155.813 7.9 155.83 7.9 155.863 7.9C155.903 7.9 155.923 7.9 155.923 7.9V8H155.233V7.37ZM155.243 2.63V2H155.933V2.1C155.933 2.1 155.913 2.1 155.873 2.1C155.833 2.1 155.813 2.1 155.813 2.1C155.66 2.1 155.53 2.15 155.423 2.25C155.323 2.35 155.273 2.47667 155.273 2.63H155.243ZM153.853 2.63H153.823C153.823 2.47667 153.77 2.35 153.663 2.25C153.556 2.15 153.43 2.1 153.283 2.1C153.283 2.1 153.263 2.1 153.223 2.1C153.19 2.1 153.173 2.1 153.173 2.1V2H153.853V2.63ZM158.654 2V8H157.214V2H158.654ZM160.994 7.6L161.224 8H158.634V7.6H160.994ZM160.654 4.83V5.23H158.634V4.83H160.654ZM161.104 2V2.4H158.634V2H161.104ZM161.634 6.16L161.254 8H159.524L159.834 7.6C160.121 7.6 160.374 7.54333 160.594 7.43C160.821 7.31 161.014 7.14333 161.174 6.93C161.334 6.71 161.457 6.45333 161.544 6.16H161.634ZM160.654 5.21V6.09H160.554V6.01C160.554 5.79 160.484 5.60667 160.344 5.46C160.211 5.31333 160.027 5.23667 159.794 5.23V5.21H160.654ZM160.654 3.97V4.85H159.794V4.83C160.027 4.82333 160.211 4.74667 160.344 4.6C160.484 4.44667 160.554 4.26 160.554 4.04V3.97H160.654ZM161.104 2.38V3.44H161.004V3.35C161.004 3.05667 160.924 2.82667 160.764 2.66C160.611 2.49333 160.387 2.40667 160.094 2.4V2.38H161.104ZM161.104 1.85V2.09L160.054 2C160.247 2 160.451 1.98333 160.664 1.95C160.877 1.91 161.024 1.87667 161.104 1.85ZM157.234 7.37L157.284 8H156.544V7.9C156.544 7.9 156.564 7.9 156.604 7.9C156.644 7.9 156.667 7.9 156.674 7.9C156.821 7.9 156.944 7.85 157.044 7.75C157.151 7.64333 157.207 7.51667 157.214 7.37H157.234ZM157.234 2.63H157.214C157.207 2.47667 157.151 2.35 157.044 2.25C156.944 2.15 156.821 2.1 156.674 2.1C156.667 2.1 156.644 2.1 156.604 2.1C156.564 2.1 156.544 2.1 156.544 2.1V2H157.284L157.234 2.63ZM165.039 1.73L167.999 7.95H166.309L164.449 3.56L165.039 1.73ZM163.159 7.34C163.085 7.52 163.095 7.66 163.189 7.76C163.282 7.85333 163.385 7.9 163.499 7.9H163.579V8H161.579V7.9C161.579 7.9 161.592 7.9 161.619 7.9C161.645 7.9 161.659 7.9 161.659 7.9C161.792 7.9 161.932 7.86 162.079 7.78C162.225 7.69333 162.345 7.54667 162.439 7.34H163.159ZM165.039 1.73L165.059 2.93L162.889 7.97H162.149L164.489 2.94C164.502 2.9 164.532 2.83 164.579 2.73C164.625 2.62333 164.675 2.50667 164.729 2.38C164.782 2.24667 164.832 2.12333 164.879 2.01C164.925 1.89 164.952 1.79667 164.959 1.73H165.039ZM165.909 6.04V6.43H163.359V6.04H165.909ZM166.059 7.34H167.709C167.809 7.54667 167.932 7.69333 168.079 7.78C168.225 7.86 168.365 7.9 168.499 7.9C168.499 7.9 168.512 7.9 168.539 7.9C168.565 7.9 168.579 7.9 168.579 7.9V8H165.639V7.9H165.719C165.832 7.9 165.935 7.85333 166.029 7.76C166.122 7.66 166.132 7.52 166.059 7.34ZM170.694 2H171.774C172.048 2 172.314 2.03 172.574 2.09C172.834 2.14333 173.068 2.23333 173.274 2.36C173.481 2.48 173.644 2.64667 173.764 2.86C173.891 3.06667 173.954 3.32667 173.954 3.64C173.954 3.87333 173.904 4.10667 173.804 4.34C173.711 4.56667 173.561 4.76333 173.354 4.93C173.154 5.09667 172.891 5.20667 172.564 5.26C172.758 5.32 172.941 5.43667 173.114 5.61C173.294 5.78333 173.434 5.94667 173.534 6.1C173.561 6.15333 173.608 6.24 173.674 6.36C173.741 6.47333 173.824 6.60667 173.924 6.76C174.031 6.90667 174.141 7.06 174.254 7.22C174.388 7.4 174.504 7.54 174.604 7.64C174.704 7.73333 174.808 7.8 174.914 7.84C175.021 7.88 175.144 7.9 175.284 7.9V8H174.444C174.084 8 173.778 7.97333 173.524 7.92C173.278 7.86667 173.061 7.77 172.874 7.63C172.694 7.48333 172.528 7.28667 172.374 7.04C172.314 6.95333 172.251 6.85 172.184 6.73C172.118 6.60333 172.051 6.47667 171.984 6.35C171.918 6.22333 171.858 6.1 171.804 5.98C171.758 5.86 171.724 5.76 171.704 5.68C171.618 5.46667 171.518 5.31333 171.404 5.22C171.298 5.12 171.198 5.07 171.104 5.07V4.98C171.104 4.98 171.128 4.98 171.174 4.98C171.221 4.98 171.281 4.98 171.354 4.98C171.494 4.98 171.631 4.95667 171.764 4.91C171.904 4.85667 172.031 4.76 172.144 4.62C172.258 4.47333 172.341 4.26 172.394 3.98C172.408 3.94 172.418 3.88333 172.424 3.81C172.438 3.73667 172.441 3.65333 172.434 3.56C172.421 3.31333 172.374 3.11667 172.294 2.97C172.221 2.81667 172.128 2.70333 172.014 2.63C171.901 2.55 171.784 2.49667 171.664 2.47C171.551 2.43667 171.451 2.42 171.364 2.42C171.238 2.41333 171.121 2.41333 171.014 2.42C170.914 2.42 170.838 2.41667 170.784 2.41C170.778 2.41 170.768 2.37667 170.754 2.31C170.741 2.23667 170.728 2.16667 170.714 2.1C170.701 2.03333 170.694 2 170.694 2ZM170.794 2V8H169.344V2H170.794ZM169.374 7.37L169.414 8H168.694V7.9C168.701 7.9 168.718 7.9 168.744 7.9C168.778 7.9 168.801 7.9 168.814 7.9C168.961 7.9 169.084 7.85 169.184 7.75C169.291 7.64333 169.348 7.51667 169.354 7.37H169.374ZM169.374 2.62H169.354C169.348 2.46667 169.291 2.34333 169.184 2.25C169.084 2.15 168.964 2.1 168.824 2.1C168.804 2.1 168.778 2.1 168.744 2.1C168.718 2.1 168.701 2.1 168.694 2.1V2H169.414L169.374 2.62ZM170.774 7.37H170.794C170.794 7.53667 170.851 7.66667 170.964 7.76C171.084 7.85333 171.211 7.9 171.344 7.9C171.344 7.9 171.358 7.9 171.384 7.9C171.411 7.9 171.431 7.9 171.444 7.9V8H170.724L170.774 7.37ZM178.391 2.03V8H176.941V2.03H178.391ZM180.571 1.99V2.39H174.771V1.99H180.571ZM180.571 2.36V3.42H180.461V3.33C180.468 3.04333 180.388 2.81667 180.221 2.65C180.061 2.48333 179.838 2.39667 179.551 2.39V2.36H180.571ZM180.571 1.84V2.09L179.511 1.99C179.638 1.99 179.774 1.98333 179.921 1.97C180.068 1.95 180.201 1.93 180.321 1.91C180.441 1.88333 180.524 1.86 180.571 1.84ZM176.961 7.37V8H176.291V7.9C176.291 7.9 176.308 7.9 176.341 7.9C176.381 7.9 176.401 7.9 176.401 7.9C176.548 7.9 176.671 7.85 176.771 7.75C176.878 7.64333 176.934 7.51667 176.941 7.37H176.961ZM178.361 7.37H178.391C178.391 7.51667 178.444 7.64333 178.551 7.75C178.658 7.85 178.788 7.9 178.941 7.9C178.941 7.9 178.958 7.9 178.991 7.9C179.031 7.9 179.051 7.9 179.051 7.9V8H178.361V7.37ZM175.791 2.36V2.39C175.498 2.39667 175.271 2.48333 175.111 2.65C174.958 2.81667 174.881 3.04333 174.881 3.33V3.42H174.771V2.36H175.791ZM174.771 1.84C174.831 1.85333 174.918 1.87333 175.031 1.9C175.151 1.92667 175.281 1.95 175.421 1.97C175.568 1.98333 175.701 1.99 175.821 1.99L174.771 2.09V1.84ZM183.037 1.87C183.171 1.87 183.331 1.87667 183.517 1.89C183.711 1.90333 183.901 1.92 184.087 1.94C184.274 1.95333 184.437 1.97333 184.577 2C184.724 2.02 184.824 2.04 184.877 2.06L184.747 3.28H184.657C184.657 2.97333 184.551 2.73 184.337 2.55C184.124 2.37 183.817 2.28 183.417 2.28C183.097 2.28 182.837 2.35 182.637 2.49C182.444 2.63 182.341 2.81667 182.327 3.05C182.314 3.17 182.334 3.28 182.387 3.38C182.447 3.47333 182.527 3.55667 182.627 3.63C182.734 3.70333 182.851 3.77667 182.977 3.85L184.547 4.82C184.814 4.95333 185.024 5.14667 185.177 5.4C185.331 5.65333 185.397 5.96 185.377 6.32C185.357 6.69333 185.247 7.01667 185.047 7.29C184.854 7.56333 184.584 7.77333 184.237 7.92C183.897 8.06 183.494 8.13 183.027 8.13C182.741 8.13 182.474 8.10667 182.227 8.06C181.981 8.01333 181.767 7.95 181.587 7.87C181.414 7.79 181.281 7.7 181.187 7.6C181.134 7.46667 181.111 7.30667 181.117 7.12C181.124 6.92667 181.154 6.73667 181.207 6.55C181.261 6.35667 181.327 6.19667 181.407 6.07H181.487C181.467 6.37 181.521 6.64667 181.647 6.9C181.781 7.15333 181.974 7.35667 182.227 7.51C182.481 7.65667 182.784 7.73 183.137 7.73C183.524 7.73 183.814 7.64 184.007 7.46C184.201 7.28 184.297 7.07 184.297 6.83C184.297 6.65 184.237 6.49 184.117 6.35C184.004 6.20333 183.814 6.06 183.547 5.92L182.127 5.02C181.794 4.84667 181.551 4.61667 181.397 4.33C181.251 4.04333 181.197 3.73 181.237 3.39C181.271 3.07 181.364 2.79667 181.517 2.57C181.677 2.34333 181.887 2.17 182.147 2.05C182.407 1.93 182.704 1.87 183.037 1.87ZM184.877 1.96L184.867 2.14H183.797V1.96H184.877ZM190.784 2V8H189.344V2H190.784ZM189.374 7.37V8H188.644V7.9C188.644 7.9 188.664 7.9 188.704 7.9C188.744 7.9 188.767 7.9 188.774 7.9C188.927 7.9 189.06 7.85 189.174 7.75C189.287 7.64333 189.344 7.51667 189.344 7.37H189.374ZM190.764 7.37H190.784C190.79 7.51667 190.847 7.64333 190.954 7.75C191.067 7.85 191.204 7.9 191.364 7.9C191.364 7.9 191.38 7.9 191.414 7.9C191.454 7.9 191.477 7.9 191.484 7.9V8H190.764V7.37ZM190.764 2.63V2H191.484L191.474 2.1C191.474 2.1 191.457 2.1 191.424 2.1C191.39 2.1 191.37 2.1 191.364 2.1C191.204 2.1 191.067 2.15 190.954 2.25C190.847 2.35 190.79 2.47667 190.784 2.63H190.764ZM189.374 2.63H189.344C189.344 2.47667 189.287 2.35 189.174 2.25C189.06 2.15 188.924 2.1 188.764 2.1C188.764 2.1 188.744 2.1 188.704 2.1C188.664 2.1 188.644 2.1 188.644 2.1V2H189.374V2.63ZM192.729 1.86L198.599 7.02L198.699 8.13L192.839 2.97L192.729 1.86ZM192.769 7.39V8H192.029V7.9C192.029 7.9 192.056 7.9 192.109 7.9C192.163 7.9 192.189 7.9 192.189 7.9C192.343 7.9 192.473 7.85333 192.579 7.76C192.686 7.66 192.739 7.53667 192.739 7.39H192.769ZM194.109 7.39C194.116 7.53667 194.173 7.66 194.279 7.76C194.386 7.85333 194.513 7.9 194.659 7.9C194.659 7.9 194.686 7.9 194.739 7.9C194.799 7.9 194.829 7.9 194.829 7.9V8H194.089V7.39H194.109ZM192.729 1.86L194.109 3.36V8H192.739V3C192.739 2.66 192.723 2.38667 192.689 2.18C192.656 1.96667 192.639 1.86 192.639 1.86H192.729ZM198.689 2V6.96C198.689 7.19333 198.696 7.4 198.709 7.58C198.729 7.75333 198.746 7.89 198.759 7.99C198.779 8.08333 198.789 8.13 198.789 8.13H198.699L197.319 6.54V2H198.689ZM198.659 2.61V2H199.409V2.1C199.409 2.1 199.379 2.1 199.319 2.1C199.266 2.1 199.239 2.1 199.239 2.1C199.093 2.1 198.963 2.15 198.849 2.25C198.743 2.34333 198.689 2.46333 198.689 2.61H198.659ZM197.319 2.61C197.313 2.46333 197.256 2.34333 197.149 2.25C197.049 2.15 196.923 2.1 196.769 2.1C196.769 2.1 196.739 2.1 196.679 2.1C196.626 2.1 196.599 2.1 196.599 2.1V2H197.339V2.61H197.319ZM205.874 5.49L205.984 7C205.858 7.21333 205.681 7.40667 205.454 7.58C205.228 7.74667 204.951 7.88 204.624 7.98C204.298 8.08 203.918 8.13 203.484 8.13C202.738 8.12333 202.094 7.99667 201.554 7.75C201.014 7.50333 200.598 7.15 200.304 6.69C200.018 6.22333 199.874 5.65667 199.874 4.99C199.874 4.33667 200.018 3.78 200.304 3.32C200.591 2.85333 201.004 2.49667 201.544 2.25C202.084 1.99667 202.731 1.87 203.484 1.87C203.938 1.87 204.358 1.91333 204.744 2C205.138 2.08667 205.464 2.19667 205.724 2.33L205.734 3.92H205.654C205.488 3.30667 205.224 2.87667 204.864 2.63C204.504 2.38333 204.078 2.26 203.584 2.26C203.098 2.26 202.691 2.37333 202.364 2.6C202.044 2.82667 201.801 3.14333 201.634 3.55C201.474 3.95667 201.394 4.43333 201.394 4.98C201.394 5.53333 201.474 6.01333 201.634 6.42C201.801 6.82667 202.041 7.14333 202.354 7.37C202.668 7.59667 203.044 7.71667 203.484 7.73C203.958 7.73 204.348 7.65667 204.654 7.51C204.968 7.36333 205.214 7.12667 205.394 6.8C205.581 6.47333 205.714 6.03667 205.794 5.49H205.874ZM207.47 8.1C207.27 8.1 207.1 8.03 206.96 7.89C206.82 7.75 206.75 7.58 206.75 7.38C206.75 7.17333 206.82 7 206.96 6.86C207.1 6.72 207.27 6.65 207.47 6.65C207.677 6.65 207.85 6.72 207.99 6.86C208.13 7 208.2 7.17333 208.2 7.38C208.2 7.58 208.13 7.75 207.99 7.89C207.85 8.03 207.677 8.1 207.47 8.1Z" fill="white"/>
</svg>
