<svg width="151" height="55" viewBox="0 0 151 55" fill="none" xmlns="http://www.w3.org/2000/svg">
<g filter="url(#filter0_d_182_132)">
<path d="M4 23.5C4 10.5213 14.5213 0 27.5 0H123.5C136.479 0 147 10.5213 147 23.5V23.5C147 36.4787 136.479 47 123.5 47H27.5C14.5213 47 4 36.4787 4 23.5V23.5Z" fill="#847FC0"/>
</g>
<path d="M32.9393 22.9393C32.3536 23.5251 32.3536 24.4749 32.9393 25.0607L42.4853 34.6066C43.0711 35.1924 44.0208 35.1924 44.6066 34.6066C45.1924 34.0208 45.1924 33.0711 44.6066 32.4853L36.1213 24L44.6066 15.5147C45.1924 14.9289 45.1924 13.9792 44.6066 13.3934C44.0208 12.8076 43.0711 12.8076 42.4853 13.3934L32.9393 22.9393ZM118 24V22.5L34 22.5V24V25.5L118 25.5V24Z" fill="white"/>
<defs>
<filter id="filter0_d_182_132" x="0" y="0" width="151" height="55" filterUnits="userSpaceOnUse" color-interpolation-filters="sRGB">
<feFlood flood-opacity="0" result="BackgroundImageFix"/>
<feColorMatrix in="SourceAlpha" type="matrix" values="0 0 0 0 0 0 0 0 0 0 0 0 0 0 0 0 0 0 127 0" result="hardAlpha"/>
<feOffset dy="4"/>
<feGaussianBlur stdDeviation="2"/>
<feComposite in2="hardAlpha" operator="out"/>
<feColorMatrix type="matrix" values="0 0 0 0 0.105882 0 0 0 0 0.0745098 0 0 0 0 0.372549 0 0 0 1 0"/>
<feBlend mode="normal" in2="BackgroundImageFix" result="effect1_dropShadow_182_132"/>
<feBlend mode="normal" in="SourceGraphic" in2="effect1_dropShadow_182_132" result="shape"/>
</filter>
</defs>
</svg>
